<?xml version="1.0" encoding="UTF-8"?>
<svg width="96px" height="76px" viewBox="0 0 96 76" version="1.1" xmlns="http://www.w3.org/2000/svg" xmlns:xlink="http://www.w3.org/1999/xlink">
    <!-- Generator: Sketch 58 (84663) - https://sketch.com -->
    <title>ic_mcdelivery</title>
    <desc>Created with Sketch.</desc>
    <defs>
        <path d="M79.0519714,38.9163788 L79.0519714,44.4629397 C79.0519714,46.5044756 77.4074096,48.1601759 75.3796081,48.1601759 L9.27145381,48.1601759 C8.25720215,48.1601759 7.43527217,47.332679 7.43527217,46.3115578 L7.43527217,40.7649969 L1.92602539,40.7649969 C0.911773547,40.7649969 0.08984375,39.9375 0.08984375,38.9163788 L0.08984375,27.8239637 C0.08984375,26.8028425 0.911773547,25.9753456 1.92602539,25.9753456 L32.9600219,25.9753456 C33.9742735,25.9753456 34.7962035,26.8028425 34.7962035,27.8239637 L34.7962035,35.2191426 C34.7962035,37.2606784 36.4407653,38.9163788 38.4692688,38.9163788 L47.6508789,38.9163788 C49.6793822,38.9163788 51.3232422,37.2606784 51.3232422,35.2191426 L51.3232422,1.84861809 C51.3232422,0.827496905 52.145874,0 53.1594238,0 L54.9963073,0 C56.010559,0 56.832489,0.827496905 56.832489,1.84861809 L56.832489,7.48704464 C60.8887939,7.48704464 64.1779174,10.7984455 64.1779174,14.8822236 L64.1779174,20.7637406 C72.6506042,22.4046013 79.0519714,29.9071923 79.0519714,38.9163788 L79.0519714,38.9163788 Z" id="path-1"></path>
        <polygon id="path-3" points="0.20530259 25.0752335 25.5209279 25.0752335 25.5209279 0.182833191 0.20530259 0.182833191"></polygon>
        <filter x="-9.6%" y="-112.5%" width="119.1%" height="325.0%" filterUnits="objectBoundingBox" id="filter-5">
            <feGaussianBlur stdDeviation="3" in="SourceGraphic"></feGaussianBlur>
        </filter>
    </defs>
    <g id="Symbols" stroke="none" stroke-width="1" fill="none" fill-rule="evenodd">
        <g id="icon/mcdelivery">
            <g id="Group-6">
                <g id="Group-8" transform="translate(49.500000, 36.000000) scale(-1, 1) translate(-49.500000, -36.000000) translate(3.000000, 0.000000)">
                    <path d="M69.9770508,8.20006281 L69.9770508,15.5952418 C69.9770508,16.1054492 69.565735,16.5195508 69.05896,16.5195508 C68.5514831,16.5195508 68.1408691,16.1054492 68.1408691,15.5952418 L68.1408691,10.8118719 C67.8530885,10.9143373 67.5449524,10.9729899 67.2227783,10.9729899 L64.467804,10.9729899 C63.4535522,10.9729899 62.6316224,10.145493 62.6316224,9.12437186 L62.6316224,7.27575377 C62.6316224,6.25463258 63.4535522,5.42713568 64.467804,5.42713568 L67.2227783,5.42713568 C68.743805,5.42713568 69.9770508,6.66873425 69.9770508,8.20006281 Z" id="Path" fill="#FFF5F5"></path>
                    <g id="Path-+-Path-+-Path-Mask" transform="translate(12.937500, 16.824121)">
                        <mask id="mask-2" fill="white">
                            <use xlink:href="#path-1"></use>
                        </mask>
                        <use id="Mask" fill="#D61216" xlink:href="#path-1"></use>
                        <path d="M79.2265667,34.8573336 L71.7854589,34.8573336 C70.7315087,34.8573336 69.8766784,35.6848305 69.8766784,36.7059517 C69.8766784,37.7270729 70.7315087,38.5545698 71.7854589,38.5545698 L79.4176635,38.5545698 L79.4176635,35.9399341 C79.364419,35.5752984 79.3016926,35.214196 79.2265667,34.8573336 Z" id="Path" fill="#222222" fill-rule="nonzero" mask="url(#mask-2)"></path>
                        <path d="M71.6560059,29.3065327 L75.3283691,29.3065327 L75.3283691,33.0037688 L71.6560059,33.0037688 C70.6417542,33.0037688 69.8191224,32.1762719 69.8191224,31.1551508 C69.8191224,30.1340296 70.6417542,29.3065327 71.6560059,29.3065327 L71.6560059,29.3065327 Z" id="Path" fill="#D9D9D9" mask="url(#mask-2)"></path>
                        <path d="M78.2644349,33.0037688 L75.249054,33.0037688 C74.2348023,33.0037688 73.4128724,32.1762719 73.4128724,31.1551508 C73.4128724,30.1340296 74.2348023,29.3065327 75.249054,29.3065327 L76.6479494,29.3065327 C77.3140565,30.4654523 77.8587343,31.7035176 78.2644349,33.0037688 Z" id="Path" fill="#FFFFFF" mask="url(#mask-2)"></path>
                    </g>
                    <polygon id="Path" fill="#333333" fill-rule="nonzero" points="64.2712708 16.4623116 69.7805176 16.4623116 69.7805176 55.2861181 64.2712708 55.2861181"></polygon>
                    <path d="M16.491101,42.4376571 L14.8381165,42.4376571 C13.8238647,42.4376571 13.0019349,43.265154 13.0019349,44.2862752 L13.0019349,57.2273085 C13.0019349,58.2484296 13.8238647,59.0759266 14.8381165,59.0759266 L16.491101,59.0759266 C17.5053528,59.0759266 18.3272826,58.2484296 18.3272826,57.2273085 L18.3272826,44.2862752 C18.3272826,43.265154 17.5053528,42.4376571 16.491101,42.4376571 Z" id="Path" fill="#AB1319" fill-rule="nonzero"></path>
                    <path d="M69.902649,16.502591 L69.902649,20.1998272 L55.2117922,20.1998272 C54.1975403,20.1998272 53.3756105,19.3723303 53.3756105,18.3512091 L53.3756105,16.502591 C53.3756105,15.4814698 54.1975403,14.6532663 55.2117922,14.6532663 L68.0664674,14.6532663 C69.080719,14.6532663 69.902649,15.4814698 69.902649,16.502591 Z" id="Path" fill="#333333" fill-rule="nonzero"></path>
                    <path d="M52.6414185,38.6874213 L7.46755986,38.6874213 L7.46755986,42.3853643 C7.46755986,44.4269001 9.11141981,46.0826005 11.1399231,46.0826005 L52.6414185,46.0826005 C54.1624452,46.0826005 55.395691,44.8410019 55.395691,43.3096734 L55.395691,41.4603487 C55.395691,39.9290201 54.1624452,38.6874213 52.6414185,38.6874213 L52.6414185,38.6874213 Z" id="Path" fill="#333333" fill-rule="nonzero"></path>
                    <path d="M60.721039,20.1998272 L55.2117922,20.1998272 C54.1975403,20.1998272 53.3756105,19.3723303 53.3756105,18.3512091 L53.3756105,16.502591 C53.3756105,15.4814698 54.1975403,14.6532663 55.2117922,14.6532663 L60.721039,14.6532663 C59.7067871,14.6532663 58.8848573,15.4814698 58.8848573,16.502591 L58.8848573,18.3512091 C58.8848573,19.3723303 59.7067871,20.1998272 60.721039,20.1998272 L60.721039,20.1998272 Z" id="Path" fill="#222222" fill-rule="nonzero"></path>
                    <path d="M12.9761048,42.3853643 L12.9761048,38.6874213 L7.46755986,38.6874213 L7.46755986,42.3853643 C7.46755986,44.4269001 9.11141981,46.0826005 11.1399231,46.0826005 L16.6491699,46.0826005 C14.6206666,46.0826005 12.9761048,44.4269001 12.9761048,42.3853643 Z" id="Path" fill="#222222" fill-rule="nonzero"></path>
                    <path d="M0.100372359,39.7481156 L0.100372359,2.77292695 C0.100372359,1.24159857 1.33361816,0 2.85464482,0 L39.5810853,0 C41.1028138,0 42.3360596,1.24159857 42.3360596,2.77292695 L42.3360596,39.7481156 C42.3360596,41.279444 41.1028138,42.5217493 39.5810853,42.5217493 L2.85464482,42.5217493 C1.33361816,42.5217493 0.100372359,41.279444 0.100372359,39.7481156 Z" id="Path" fill="#AB1319"></path>
                    <path d="M6,39.7481156 L6,2.77292695 C6,1.24159857 7.2332458,0 8.75427246,0 L40.1553649,0 C41.6770935,0 42.9103393,1.24159857 42.9103393,2.77292695 L42.9103393,39.7481156 C42.9103393,41.279444 41.6770935,42.5217493 40.1553649,42.5217493 L8.75427246,42.5217493 C7.2332458,42.5217493 6,41.279444 6,39.7481156 Z" id="Path" fill="#D61216"></path>
                    <g id="Group-2" transform="translate(24.000000, 21.000000) scale(-1, 1) translate(-24.000000, -21.000000) translate(11.000000, 8.000000)">
                        <polygon id="Fill-450" fill="#FFFFFF" points="2.77801798 20.7481813 2.09500981 22.7882796 1.41631085 20.7481813 0.568629691 20.7481813 0.20542571 23.9945478 1.04356507 23.9945478 1.23717126 21.9935401 1.81860543 23.757234 2.3566398 23.757234 2.93314917 22.0126237 3.12213836 23.9945478 3.98951872 23.9945478 3.62600694 20.7481813"></polygon>
                        <g id="Group">
                            <g id="Group-466">
                                <path d="M5.43830246,24.0576776 C5.20560568,24.0576776 4.99568609,24.009353 4.8082359,23.912396 C4.62109351,23.815439 4.47242611,23.670773 4.36254152,23.4787058 C4.25265692,23.2866386 4.19786853,23.0514794 4.19786853,22.773536 C4.19786853,22.5054422 4.25265692,22.2755157 4.36254152,22.0831407 C4.47242611,21.8910735 4.62109351,21.7439451 4.8082359,21.6420633 C4.99568609,21.5404893 5.20560568,21.4897023 5.43830246,21.4897023 C5.62575266,21.4897023 5.80089085,21.5244837 5.96402484,21.5937387 C6.12715883,21.6633015 6.26289862,21.7673379 6.37093642,21.9061557 C6.47928201,22.0452813 6.54638241,22.2198039 6.57223761,22.4297234 L5.75810665,22.4297234 C5.73225145,22.2841341 5.69192965,22.1800977 5.63683345,22.1169987 C5.58204506,22.0542075 5.51586806,22.0225041 5.43830246,22.0225041 C5.33488167,22.0225041 5.24438847,22.0791393 5.16682288,22.1921019 C5.08956508,22.3053723 5.05078228,22.4989784 5.05078228,22.773536 C5.05078228,23.0450156 5.08956508,23.2380062 5.16682288,23.3528156 C5.24438847,23.4673172 5.33488167,23.524568 5.43830246,23.524568 C5.52233186,23.524568 5.59251026,23.4925568 5.64914545,23.4279188 C5.70547285,23.3632808 5.74671805,23.2484714 5.77257325,23.0837984 L6.58177941,23.0837984 C6.54638241,23.3097236 6.47189481,23.4947114 6.35893222,23.638454 C6.24596962,23.7821966 6.10930643,23.8880798 5.94955824,23.9557958 C5.78950225,24.0238196 5.61928886,24.0576776 5.43830246,24.0576776" id="Fill-451" fill="#FFFFFF"></path>
                                <path d="M8.03647291,21.3490685 L7.71174393,21.3490685 L7.71174393,23.3891668 L8.03647291,23.3891668 C8.3368857,23.3891668 8.55819389,23.3002126 8.70039748,23.122612 C8.84229327,22.9450114 8.91339507,22.6944622 8.91339507,22.37158 C8.91339507,22.045312 8.84229327,21.7932239 8.70039748,21.6156233 C8.55819389,21.4380227 8.3368857,21.3490685 8.03647291,21.3490685 L8.03647291,21.3490685 Z M6.89792077,23.9946093 L6.89792077,20.7482429 L8.03647291,20.7482429 C8.42091509,20.7482429 8.74564408,20.8184213 9.01035206,20.9590859 C9.27536785,21.0994427 9.47543784,21.2884319 9.61117763,21.5260535 C9.74691743,21.7633673 9.81463342,22.0289986 9.81463342,22.3229476 C9.81463342,22.6526014 9.74691743,22.942549 9.61117763,23.1927904 C9.47543784,23.4430318 9.27536785,23.6394082 9.01035206,23.7816118 C8.74564408,23.9238153 8.42091509,23.9946093 8.03647291,23.9946093 L6.89792077,23.9946093 Z" id="Fill-453" fill="#FFFFFF"></path>
                                <path d="M11.2260503,21.9983725 C11.1161657,21.9983725 11.0250569,22.0460815 10.9524161,22.1411917 C10.8797753,22.2366097 10.8366833,22.3729651 10.8237557,22.5505657 L11.6135704,22.5505657 C11.6006428,22.3763509 11.56186,22.2406111 11.4975298,22.1436541 C11.4328918,22.0466971 11.3423986,21.9983725 11.2260503,21.9983725 M11.2454417,24.0575544 C11.0161307,24.0575544 10.8077501,24.0107688 10.6202999,23.9171976 C10.4328497,23.8236265 10.2844901,23.6820385 10.1746055,23.4933571 C10.0647209,23.3043679 10.0099325,23.0642839 10.0099325,22.7737207 C10.0099325,22.5120907 10.0607195,22.2852421 10.1626013,22.0928671 C10.2641753,21.9008 10.4063789,21.7521326 10.5889043,21.6471728 C10.7714297,21.542213 10.9838117,21.4895792 11.2260503,21.4895792 C11.4812164,21.4895792 11.6985232,21.543752 11.8776628,21.6517898 C12.0571102,21.7601354 12.1934656,21.9109574 12.2873446,22.1048713 C12.3809158,22.2987853 12.4277014,22.5250183 12.4277014,22.7832625 L12.4277014,22.9433185 L10.8237557,22.9433185 C10.8431471,23.1630877 10.8908561,23.3188345 10.9668827,23.4108667 C11.0426015,23.5028989 11.1370961,23.5487611 11.2503665,23.5487611 C11.3537872,23.5487611 11.4344308,23.5216747 11.492605,23.4665785 C11.5507792,23.4114823 11.591101,23.3342245 11.6135704,23.2338817 L12.3987682,23.2338817 C12.3341302,23.5084393 12.197467,23.7143575 11.9890864,23.8516363 C11.7810136,23.9892228 11.5329268,24.0575544 11.2454417,24.0575544" id="Fill-455" fill="#FFFFFF"></path>
                                <mask id="mask-4" fill="white">
                                    <use xlink:href="#path-3"></use>
                                </mask>
                                <g id="Clip-458"></g>
                                <polygon id="Fill-457" fill="#FFFFFF" mask="url(#mask-4)" points="12.6844374 23.9948556 13.5081101 23.9948556 13.5081101 20.6028998 12.6844374 20.6028998"></polygon>
                                <polygon id="Fill-459" fill="#FFFFFF" mask="url(#mask-4)" points="13.8959381 23.9945478 14.7196109 23.9945478 14.7196109 21.5524627 13.8959381 21.5524627"></polygon>
                                <polygon id="Fill-460" fill="#FFFFFF" mask="url(#mask-4)" points="15.746801 23.9947017 14.8843454 21.5526166 15.7369514 21.5526166 16.2069619 23.2193535 16.6674307 21.5526166 17.4670951 21.5526166 16.6043317 23.9947017"></polygon>
                                <path d="M18.6359655,21.9983725 C18.5260809,21.9983725 18.4349721,22.0460815 18.3623313,22.1411917 C18.2896905,22.2366097 18.2465985,22.3729651 18.2336709,22.5505657 L19.0237935,22.5505657 C19.0105581,22.3763509 18.9717753,22.2406111 18.9074451,22.1436541 C18.8428071,22.0466971 18.7523139,21.9983725 18.6359655,21.9983725 M18.6553569,24.0575544 C18.4260459,24.0575544 18.2176653,24.0107688 18.0302151,23.9171976 C17.842765,23.8236265 17.6944054,23.6820385 17.5845208,23.4933571 C17.4746362,23.3043679 17.4198478,23.0642839 17.4198478,22.7737207 C17.4198478,22.5120907 17.4706348,22.2852421 17.5725166,22.0928671 C17.6740906,21.9008 17.8162942,21.7521326 17.9988195,21.6471728 C18.1813449,21.542213 18.3937269,21.4895792 18.6359655,21.4895792 C18.8911317,21.4895792 19.1084385,21.543752 19.2875781,21.6517898 C19.4670255,21.7601354 19.6033809,21.9109574 19.6972599,22.1048713 C19.7908311,22.2987853 19.8376167,22.5250183 19.8376167,22.7832625 L19.8376167,22.9433185 L18.2336709,22.9433185 C18.2530623,23.1630877 18.3007713,23.3188345 18.3767979,23.4108667 C18.4525167,23.5028989 18.5470113,23.5487611 18.6602817,23.5487611 C18.7637025,23.5487611 18.8443461,23.5216747 18.9025203,23.4665785 C18.9606945,23.4114823 19.0010163,23.3342245 19.0237935,23.2338817 L19.8086835,23.2338817 C19.7437377,23.5084393 19.6073823,23.7143575 19.3990017,23.8516363 C19.1909289,23.9892228 18.9428421,24.0575544 18.6553569,24.0575544" id="Fill-461" fill="#FFFFFF" mask="url(#mask-4)"></path>
                                <path d="M20.1573901,23.9947017 L20.1573901,21.5526166 L20.879181,21.5526166 L20.9182716,21.9789196 C20.9601324,21.8625712 21.0327732,21.7560724 21.136194,21.6591154 C21.2396148,21.5621584 21.3768936,21.5138338 21.5480304,21.5138338 C21.5803494,21.5138338 21.6077436,21.5153728 21.6305208,21.5187586 C21.6529902,21.5218366 21.6739206,21.5252224 21.693312,21.5283004 L21.693312,22.289182 C21.6739206,22.2827182 21.6449874,22.27687 21.6062046,22.272253 C21.5674218,22.2673282 21.530178,22.2648658 21.494781,22.2648658 C21.3461136,22.2648658 21.2233014,22.3110358 21.1263444,22.403068 C21.0296952,22.4951002 20.9810628,22.6363804 20.9810628,22.8269085 L20.9810628,23.9947017 L20.1573901,23.9947017 Z" id="Fill-462" fill="#FFFFFF" mask="url(#mask-4)"></path>
                                <path d="M21.8374855,24.9540835 L22.0070833,24.4502149 C22.1071183,24.4920757 22.2056143,24.5133139 22.3025713,24.5133139 C22.3767511,24.5133139 22.4438515,24.4905367 22.5038725,24.4452901 C22.5635857,24.4000435 22.6239145,24.3080113 22.6854745,24.1691935 L22.7775066,23.9558881 L21.8325607,21.5525858 L22.6854745,21.5525858 L23.1505602,23.0934326 L23.6011794,21.5525858 L24.4008438,21.5525858 L23.3638656,24.2030515 C23.2475172,24.5000785 23.1117774,24.7198477 22.9566462,24.8620513 C22.8018228,25.0042549 22.6143727,25.0753567 22.3946035,25.0753567 C22.2816409,25.0753567 22.1782201,25.0645837 22.0846489,25.0436533 C21.9907699,25.0227229 21.9085873,24.9928663 21.8374855,24.9540835" id="Fill-463" fill="#FFFFFF" mask="url(#mask-4)"></path>
                                <path d="M14.3393548,21.2993896 C14.2100788,21.2993896 14.1011176,21.2566054 14.0121634,21.171037 C13.923517,21.0854686 13.8791938,20.9811244 13.8791938,20.8583122 C13.8791938,20.7358078 13.923517,20.6314636 14.0121634,20.5458952 C14.1011176,20.4603268 14.2100788,20.4175426 14.3393548,20.4175426 C14.4686307,20.4175426 14.5775919,20.4603268 14.6665461,20.5458952 C14.7551925,20.6314636 14.7995157,20.7358078 14.7995157,20.8583122 C14.7995157,20.9811244 14.7551925,21.0854686 14.6665461,21.171037 C14.5775919,21.2566054 14.4686307,21.2993896 14.3393548,21.2993896" id="Fill-464" fill="#FFFFFF" mask="url(#mask-4)"></path>
                                <path d="M24.6422205,23.9933166 L24.7130145,23.2681398 L24.9426333,23.2681398 L25.0789887,23.6842854 L25.2224235,23.2681398 L25.4501955,23.2681398 L25.5209895,23.9933166 L25.2966033,23.9933166 L25.2655155,23.5857894 L25.1479359,23.9191368 L25.0134273,23.9191368 L24.8943087,23.5805568 L24.8613741,23.9933166 L24.6422205,23.9933166 Z M24.1811361,23.9933166 L24.1811361,23.4408156 L23.9706009,23.4408156 L23.9706009,23.2681398 L24.6111327,23.2681398 L24.6111327,23.4408156 L24.4021365,23.4408156 L24.4021365,23.9933166 L24.1811361,23.9933166 Z" id="Fill-465" fill="#FFFFFF" mask="url(#mask-4)"></path>
                            </g>
                            <g id="Group-482" transform="translate(3.385800, 0.000000)">
                                <g id="Group-469" stroke="#FFFFFF" stroke-width="0.5">
                                    <path d="M8.95728735,0.182371491 C4.05557259,0.182371491 0.0818747959,4.15606929 0.0818747959,9.05778404 C0.0818747959,13.9594988 4.05557259,17.9328888 8.95728735,17.9328888 C13.8590021,17.9328888 17.8323921,13.9594988 17.8323921,9.05778404 C17.8323921,4.15606929 13.8590021,0.182371491 8.95728735,0.182371491" id="Fill-467"></path>
                                </g>
                                <path d="M10.9055073,4.41831488 C11.6716215,4.41831488 12.2921463,7.64682891 12.2921463,11.6291451 L13.4017652,11.6291451 C13.4017652,7.34026013 12.2841435,3.8636593 10.9055073,3.8636593 C10.1215408,3.8636593 9.42160362,4.90864025 8.96421285,6.54244257 C8.50712987,4.90864025 7.8071927,3.8636593 7.02261054,3.8636593 C5.64428221,3.8636593 4.52666047,7.34026013 4.52666047,11.6291451 L5.63627941,11.6291451 C5.63627941,7.64682891 6.25711198,4.41831488 7.02261054,4.41831488 C7.78872471,4.41831488 8.40955727,7.39843433 8.40955727,11.0741817 L9.51886842,11.0741817 C9.51886842,7.39843433 10.1400088,4.41831488 10.9055073,4.41831488" id="Fill-470" fill="#FCBD00"></path>
                                <path d="M13.5394442,13.2088978 C13.5394442,13.5837981 13.2356456,13.8879045 12.8604374,13.8879045 C12.485537,13.8879045 12.1817384,13.5837981 12.1817384,13.2088978 C12.1817384,12.8339974 12.485537,12.529891 12.8604374,12.529891 C13.2356456,12.529891 13.5394442,12.8339974 13.5394442,13.2088978" id="Fill-472" fill="#FFFFFF"></path>
                                <path d="M5.09935312,12.5300449 C4.72445274,12.5300449 4.42034636,12.8341513 4.42034636,13.2090517 C4.42034636,13.583952 4.72445274,13.8877506 5.09935312,13.8877506 C5.4742535,13.8877506 5.77835989,13.583952 5.77835989,13.2090517 C5.77835989,12.8341513 5.4742535,12.5300449 5.09935312,12.5300449 M5.09935312,12.8323045 L5.09935312,12.8323045 C5.30681031,12.8323045 5.4761003,13.0009789 5.4761003,13.2090517 C5.4761003,13.4165088 5.30681031,13.585491 5.09935312,13.585491 C4.89189593,13.585491 4.72260594,13.4165088 4.72260594,13.2090517 C4.72260594,13.1084011 4.76200434,13.0135987 4.83310614,12.9424969 C4.90420793,12.8710873 4.99870253,12.8323045 5.09935312,12.8323045" id="Fill-474" fill="#FFFFFF"></path>
                                <path d="M9.33935947,13.9795058 C9.33935947,14.1866552 9.17160848,14.354714 8.96415129,14.354714 C8.7570019,14.354714 8.58925091,14.1866552 8.58925091,13.9795058 C8.58925091,13.7723564 8.7570019,13.6039898 8.96415129,13.6039898 C9.17160848,13.6039898 9.33935947,13.7723564 9.33935947,13.9795058" id="Fill-476" fill="#FFFFFF"></path>
                                <path d="M7.54479322,13.8584788 C7.54479322,14.0656282 7.37704223,14.2339948 7.16927724,14.2339948 C6.96243565,14.2339948 6.79468466,14.0656282 6.79468466,13.8584788 C6.79468466,13.6513294 6.96243565,13.4829629 7.16927724,13.4829629 C7.37704223,13.4829629 7.54479322,13.6513294 7.54479322,13.8584788" id="Fill-478" fill="#FFFFFF"></path>
                                <path d="M11.1343566,13.8584788 C11.1343566,14.0656282 10.9666056,14.2339948 10.7588407,14.2339948 C10.5519991,14.2339948 10.3839403,14.0656282 10.3839403,13.8584788 C10.3839403,13.6513294 10.5519991,13.4829629 10.7588407,13.4829629 C10.9666056,13.4829629 11.1343566,13.6513294 11.1343566,13.8584788" id="Fill-480" fill="#FFFFFF"></path>
                            </g>
                            <path d="M19.5631822,16.3652635 L19.6339762,15.6400867 L19.863595,15.6400867 L19.9999504,16.0562323 L20.1433852,15.6400867 L20.3711571,15.6400867 L20.4419511,16.3652635 L20.217565,16.3652635 L20.1864772,15.9577363 L20.0688976,16.2910837 L19.934389,16.2910837 L19.8152704,15.9528115 L19.7823358,16.3652635 L19.5631822,16.3652635 Z M19.1020978,16.3652635 L19.1020978,15.8127625 L18.8915626,15.8127625 L18.8915626,15.6400867 L19.5320944,15.6400867 L19.5320944,15.8127625 L19.3230982,15.8127625 L19.3230982,16.3652635 L19.1020978,16.3652635 Z" id="Fill-483" fill="#D61116"></path>
                        </g>
                    </g>
                    <path d="M69.0063173,51.5577889 C74.5843508,51.5577889 79.1060182,56.1100817 79.1060182,61.7258952 C79.1060182,67.3417085 74.5843508,71.8940013 69.0063173,71.8940013 C63.4282838,71.8940013 58.9066164,67.3417085 58.9066164,61.7258952 C58.9066164,56.1100817 63.4282838,51.5577889 69.0063173,51.5577889 L69.0063173,51.5577889 Z" id="Path" fill="#333333" fill-rule="nonzero"></path>
                    <path d="M14.8347474,61.7258952 C14.8347474,67.3417085 19.3564149,71.8940013 24.9344484,71.8940013 C30.5124817,71.8940013 35.0341493,67.3417085 35.0341493,61.7258952 C35.0341493,56.1100817 30.5124817,51.5577889 24.9344484,51.5577889 C19.3564149,51.5577889 14.8347474,56.1100817 14.8347474,61.7258952 Z" id="Path" fill="#333333" fill-rule="nonzero"></path>
                    <path d="M73.5939636,61.6962155 C73.5939636,64.2486651 71.5387878,66.3177605 69.0035095,66.3177605 C66.4682312,66.3177605 64.4123535,64.2486651 64.4123535,61.6962155 C64.4123535,59.1437656 66.4682312,57.0739635 69.0035095,57.0739635 C71.5387878,57.0739635 73.5939636,59.1437656 73.5939636,61.6962155 Z" id="Path" fill="#D9D9D9" fill-rule="nonzero"></path>
                    <path d="M24.9316406,57.0739635 C22.3963623,57.0739635 20.3404845,59.1437656 20.3404845,61.6962155 C20.3404845,64.2486651 22.3963623,66.3177605 24.9316406,66.3177605 C27.4669189,66.3177605 29.5220947,64.2486651 29.5220947,61.6962155 C29.5220947,59.1437656 27.4669189,57.0739635 24.9316406,57.0739635 Z" id="Path" fill="#D9D9D9" fill-rule="nonzero"></path>
                    <path d="M74.5120544,12.7961683 L70.8396911,12.7961683 C69.3186645,12.7961683 68.0854187,14.0377669 68.0854187,15.5698021 L68.0854187,19.2670383 C68.0854187,20.7983668 69.3186645,22.0399654 70.8396911,22.0399654 L74.5120544,22.0399654 C75.0195312,22.0399654 75.4308471,21.6258637 75.4308471,21.1156564 L75.4308471,13.7204774 C75.4308471,13.21027 75.0195312,12.7961683 74.5120544,12.7961683 Z" id="Path" fill="#D9D9D9" fill-rule="nonzero"></path>
                    <path d="M73.5792236,61.7442683 C73.5792236,63.6395257 72.44635,65.2669598 70.8249512,65.9806846 C69.2035523,65.2669598 68.0706787,63.6395257 68.0706787,61.7442683 C68.0706787,59.8490106 69.2035523,58.2215765 70.8249512,57.5078518 C72.44635,58.2215765 73.5792236,59.8490106 73.5792236,61.7442683 L73.5792236,61.7442683 Z" id="Path" fill="#FFF5F5" fill-rule="nonzero"></path>
                    <path d="M26.7530823,57.5078518 C25.1316833,58.2208699 23.9988099,59.8490106 23.9988099,61.7442683 C23.9988099,63.6395257 25.1316833,65.2669598 26.7530823,65.9806846 C28.3744812,65.2669598 29.5073548,63.6395257 29.5073548,61.7442683 C29.5073548,59.8490106 28.3744812,58.2215765 26.7530823,57.5078518 Z" id="Path" fill="#FFF5F5" fill-rule="nonzero"></path>
                    <path d="M70.8249512,18.390782 L74.4973145,18.390782 C75.0047913,18.390782 75.4161071,17.9766803 75.4161071,17.4664729 L75.4161071,13.7685302 C75.4161071,13.2583228 75.0047913,12.8442211 74.4973145,12.8442211 L70.8249512,12.8442211 C69.3039245,12.8442211 68.0706787,14.0858197 68.0706787,15.6178549 C68.0706787,17.1491834 69.3039245,18.390782 70.8249512,18.390782 Z" id="Path" fill="#FFF5F5" fill-rule="nonzero"></path>
                </g>
                <ellipse id="Oval" fill="#333333" fill-rule="nonzero" opacity="0.3" filter="url(#filter-5)" cx="47" cy="72" rx="47" ry="4"></ellipse>
            </g>
        </g>
    </g>
</svg>